<svg xmlns="http://www.w3.org/2000/svg" enable-background="new 0 0 40  40" height="40px" viewBox="0 0 40 40" width="40px"><rect x="0" y="0" height="10" width="10" style="fill: rgb(102, 221, 170)"/><rect x="10" y="0" height="10" width="10" style="fill: rgb(85, 187, 119)"/><rect x="20" y="0" height="10" width="10" style="fill: rgb(255, 255, 255)"/><rect x="30" y="0" height="10" width="10" style="fill: rgb(255, 255, 255)"/><rect x="0" y="10" height="10" width="10" style="fill: rgb(238, 221, 170)"/><rect x="10" y="10" height="10" width="10" style="fill: rgb(85, 187, 102)"/><rect x="20" y="10" height="10" width="10" style="fill: rgb(204, 153, 34)"/><rect x="30" y="10" height="10" width="10" style="fill: rgb(68, 153, 34)"/><rect x="0" y="20" height="10" width="10" style="fill: rgb(85, 170, 85)"/><rect x="10" y="20" height="10" width="10" style="fill: rgb(170, 85, 170)"/><rect x="20" y="20" height="10" width="10" style="fill: rgb(85, 187, 119)"/><rect x="30" y="20" height="10" width="10" style="fill: rgb(238, 221, 170)"/><rect x="0" y="30" height="10" width="10" style="fill: rgb(68, 153, 34)"/><rect x="10" y="30" height="10" width="10" style="fill: rgb(68, 153, 34)"/><rect x="20" y="30" height="10" width="10" style="fill: rgb(85, 170, 68)"/><rect x="30" y="30" height="10" width="10" style="fill: rgb(136, 17, 34)"/></svg>